<?xml version="1.0" encoding="UTF-8" standalone="no"?>
<!-- Created with Inkscape (http://www.inkscape.org/) -->

<svg
   xmlns:dc="http://purl.org/dc/elements/1.1/"
   xmlns:cc="http://creativecommons.org/ns#"
   xmlns:rdf="http://www.w3.org/1999/02/22-rdf-syntax-ns#"
   xmlns:svg="http://www.w3.org/2000/svg"
   xmlns="http://www.w3.org/2000/svg"
   xmlns:sodipodi="http://sodipodi.sourceforge.net/DTD/sodipodi-0.dtd"
   xmlns:inkscape="http://www.inkscape.org/namespaces/inkscape"
   width="169.33333mm"
   height="169.33333mm"
   viewBox="0 0 599.99999 599.99998"
   id="svg4687"
   version="1.1"
   inkscape:version="0.91 r13725"
   sodipodi:docname="Pluto.svg"
   inkscape:export-filename="C:\Games\Destination Pluto\images\resources\Pluto.png"
   inkscape:export-xdpi="90"
   inkscape:export-ydpi="90">
  <defs
     id="defs4689" />
  <sodipodi:namedview
     id="base"
     pagecolor="#ffffff"
     bordercolor="#666666"
     borderopacity="1.0"
     inkscape:pageopacity="0.0"
     inkscape:pageshadow="2"
     inkscape:zoom="0.35"
     inkscape:cx="-167.23056"
     inkscape:cy="-49.004044"
     inkscape:document-units="px"
     inkscape:current-layer="layer1"
     showgrid="false"
     fit-margin-top="0"
     fit-margin-left="0"
     fit-margin-right="0"
     fit-margin-bottom="0"
     inkscape:window-width="1920"
     inkscape:window-height="1017"
     inkscape:window-x="-8"
     inkscape:window-y="-8"
     inkscape:window-maximized="1" />
  <metadata
     id="metadata4692">
    <rdf:RDF>
      <cc:Work
         rdf:about="">
        <dc:format>image/svg+xml</dc:format>
        <dc:type
           rdf:resource="http://purl.org/dc/dcmitype/StillImage" />
        <dc:title></dc:title>
      </cc:Work>
    </rdf:RDF>
  </metadata>
  <g
     inkscape:label="1. réteg"
     inkscape:groupmode="layer"
     id="layer1"
     transform="translate(-120.802,116.64184)">
    <g
       transform="matrix(3.9297373,0,0,3.9108184,-728.52148,-948.207)"
       id="g4685"
       inkscape:export-xdpi="90"
       inkscape:export-ydpi="90">
      <g
         id="g4548"
         transform="matrix(0.36601693,0,0,0.36601693,141.87852,8.0600238)">
        <circle
           r="208.57143"
           cy="769.50507"
           cx="411.42856"
           id="circle4550"
           style="opacity:1;fill:#502d16;stroke:none" />
        <path
           inkscape:connector-curvature="0"
           style="opacity:0.76160057;fill:#784421;stroke:none"
           d="m 411.42838,560.93429 a 208.57143,208.57143 0 0 0 -208.57227,208.5703 208.57143,208.57143 0 0 0 4.02539,39.8652 244.54102,244.54102 0 0 0 226.47852,152.70311 244.54102,244.54102 0 0 0 92.70312,-18.4511 208.57143,208.57143 0 0 0 93.9375,-174.11721 208.57143,208.57143 0 0 0 -208.57226,-208.5703 z"
           id="path4552" />
        <path
           inkscape:connector-curvature="0"
           style="opacity:0.95660071;fill:#c87137;stroke:none"
           d="m 411.42838,559.92415 a 208.57143,208.57143 0 0 0 -176.78516,98.10541 210.19583,210.19583 0 0 0 -12.49023,70.6133 210.19583,210.19583 0 0 0 210.19726,210.1973 210.19583,210.19583 0 0 0 169.95703,-86.877 208.57143,208.57143 0 0 0 17.69336,-83.4687 208.57143,208.57143 0 0 0 -208.57226,-208.57031 z"
           id="path4554" />
        <path
           inkscape:connector-curvature="0"
           style="opacity:0.37800006;fill:#d38d5f;stroke:none"
           d="m 410.41823,558.91399 a 208.57143,208.57143 0 0 0 -17.77735,0.9004 168.77957,168.77957 0 0 0 -114.92968,159.73818 168.77957,168.77957 0 0 0 168.78125,168.7793 168.77957,168.77957 0 0 0 168.42578,-161.7167 208.57143,208.57143 0 0 0 -204.5,-167.70118 z"
           id="path4556" />
        <path
           inkscape:connector-curvature="0"
           style="opacity:0.25200034;fill:#deaa87;stroke:none"
           d="m 460.63423,574.00695 a 119.2821,119.2821 0 0 0 -119.2832,119.28115 119.2821,119.2821 0 0 0 119.2832,119.2813 119.2821,119.2821 0 0 0 119.28126,-119.2813 119.2821,119.2821 0 0 0 -37.29883,-86.44525 208.57143,208.57143 0 0 0 -45.07227,-26.9043 119.2821,119.2821 0 0 0 -36.91016,-5.9316 z"
           id="path4558" />
        <circle
           r="62.713562"
           cy="651.87195"
           cx="495.98911"
           id="circle4560"
           style="opacity:0.14040025;fill:#e9c6af;stroke:none" />
        <circle
           style="opacity:0.08880005;fill:#f4e3d7;stroke:none"
           id="circle4562"
           cx="514.17188"
           cy="628.63849"
           r="33.41914" />
        <path
           inkscape:connector-curvature="0"
           id="path4564"
           d="m 415.70139,750.18518 a 66.058371,50.499907 0 0 0 -79.11718,37.97754 66.058371,50.499907 0 0 0 9.90214,39.71309 l 76.08015,112.38647 139.65798,-74.47984 a 66.058371,50.499907 0 0 0 31.85994,-32.62624 66.058371,50.499907 0 0 0 -9.46969,-39.1964 115.50676,88.301917 0 0 0 -21.01356,-15.35584 66.058371,50.499907 0 0 0 -19.19501,-5.92998 66.058371,50.499907 0 0 0 -78.84216,37.18763 66.058371,50.499907 0 0 0 -9.65404,-38.39063 115.50676,88.301917 0 0 0 -21.01356,-15.35583 66.058371,50.499907 0 0 0 -19.19501,-5.92997 z m 49.39784,61.28653 a 66.058371,50.499907 0 0 0 -0.4796,2.0791 l -0.20984,-0.096 a 66.058371,50.499907 0 0 0 0.68944,-1.98303 z"
           style="opacity:0.68119992;fill:#deaa87;stroke:none" />
      </g>
      <path
         inkscape:connector-curvature="0"
         id="path4566"
         d="m 283.35738,241.71465 a 7.0710678,6.5659914 0 0 0 7.06055,6.31446 7.0710678,6.5659914 0 0 0 7.05859,-6.31446 l -14.11914,0 z"
         style="opacity:1;fill:#28170b;stroke:none" />
      <path
         inkscape:connector-curvature="0"
         style="opacity:1;fill:#28170b;stroke:none"
         d="m 312.59414,244.1681 a 7.0710678,6.5659914 13.747015 0 0 5.35776,7.81141 7.0710678,6.5659914 13.747015 0 0 8.35693,-4.45621 l -13.71469,-3.3552 z"
         id="path4571" />
      <ellipse
         ry="1.0101526"
         rx="1.1364216"
         cy="243.23001"
         cx="285.74689"
         id="path4573"
         style="opacity:1;fill:#f4e3d7;stroke:none" />
      <ellipse
         style="opacity:1;fill:#f4e3d7;stroke:none"
         id="ellipse4575"
         cx="314.78879"
         cy="246.513"
         rx="1.1364216"
         ry="1.0101526" />
      <path
         sodipodi:nodetypes="cc"
         inkscape:connector-curvature="0"
         id="path4589"
         d="m 284.6438,238.26456 c 7.23057,0.47293 13.65381,-1.36871 15.55844,-5.03418"
         style="color:#000000;clip-rule:nonzero;display:inline;overflow:visible;visibility:visible;opacity:1;isolation:auto;mix-blend-mode:normal;color-interpolation:sRGB;color-interpolation-filters:linearRGB;solid-color:#000000;solid-opacity:1;fill:none;fill-opacity:1;fill-rule:evenodd;stroke:#000000;stroke-width:0.75946349px;stroke-linecap:butt;stroke-linejoin:miter;stroke-miterlimit:4;stroke-dasharray:none;stroke-dashoffset:0;stroke-opacity:1;color-rendering:auto;image-rendering:auto;shape-rendering:auto;text-rendering:auto;enable-background:accumulate" />
      <path
         style="color:#000000;clip-rule:nonzero;display:inline;overflow:visible;visibility:visible;opacity:1;isolation:auto;mix-blend-mode:normal;color-interpolation:sRGB;color-interpolation-filters:linearRGB;solid-color:#000000;solid-opacity:1;fill:none;fill-opacity:1;fill-rule:evenodd;stroke:#000000;stroke-width:0.86534292px;stroke-linecap:butt;stroke-linejoin:miter;stroke-miterlimit:4;stroke-dasharray:none;stroke-dashoffset:0;stroke-opacity:1;color-rendering:auto;image-rendering:auto;shape-rendering:auto;text-rendering:auto;enable-background:accumulate"
         d="m 312.75139,234.96664 c 0.0848,4.15488 5.26356,7.52418 13.8378,8.07962"
         id="path4591"
         inkscape:connector-curvature="0"
         sodipodi:nodetypes="cc" />
      <path
         sodipodi:nodetypes="cc"
         inkscape:connector-curvature="0"
         id="path4593"
         d="m 304.80291,264.41256 c -4.03531,-7.56091 -7.99405,-9.27872 -9.68374,-2.89367"
         style="color:#000000;clip-rule:nonzero;display:inline;overflow:visible;visibility:visible;opacity:1;isolation:auto;mix-blend-mode:normal;color-interpolation:sRGB;color-interpolation-filters:linearRGB;solid-color:#000000;solid-opacity:1;fill:none;fill-opacity:1;fill-rule:evenodd;stroke:#000000;stroke-width:0.9006601px;stroke-linecap:butt;stroke-linejoin:miter;stroke-miterlimit:4;stroke-dasharray:none;stroke-dashoffset:0;stroke-opacity:1;color-rendering:auto;image-rendering:auto;shape-rendering:auto;text-rendering:auto;enable-background:accumulate" />
    </g>
  </g>
</svg>
